<svg xmlns="http://www.w3.org/2000/svg" viewBox="0 0 606.86 336.68"><defs><style>.cls-1{isolation:isolate;}.cls-2{fill:#cadefc;}.cls-13,.cls-3,.cls-9{fill:#fff;}.cls-4{fill:#aac8ff;}.cls-5{fill:#f7d7b5;}.cls-6{fill:#ffb552;}.cls-7{fill:#7d97d3;}.cls-8{fill:#b1c8e5;}.cls-12,.cls-8{mix-blend-mode:multiply;}.cls-13,.cls-9{mix-blend-mode:soft-light;}.cls-10{fill:#42669a;}.cls-11,.cls-17{fill:none;stroke-linecap:round;stroke-linejoin:round;stroke-width:1.8px;}.cls-11{stroke:#ffb552;}.cls-12{fill:#f7e1c6;}.cls-13,.cls-16{opacity:0.5;}.cls-14{fill:#5e80bb;}.cls-15{fill:#32547c;}.cls-17{stroke:#aac8ff;}</style></defs><title>6462308</title><g class="cls-1"><g id="OBJECTS"><path class="cls-2" d="M599.59,194.19C489,180.49,412.94,147.4,388.73,135.73A18,18,0,0,0,372,136.78c-49.75,29-186.14,72.53-205.52,79.15a4.1,4.1,0,0,0-2.78,3.83V228a3.65,3.65,0,0,0,3.88,3.67l38.93-3.11c-.87,31.61,8.39,31.73,8.84,31.72l-8.38.31a6,6,0,0,0-5.94,5.68,5.44,5.44,0,0,0,5.89,5.26l4.95-.17C194.14,278.81,207,432.8,207,432.8l-5.64,0a5.76,5.76,0,0,0-6,5.42h0a5.71,5.71,0,0,0,6,5.4H236c3.38,0,6.14-2.44,6.17-5.46h0c0-3-2.68-5.46-6.06-5.45h-5.71s14.83-155.59-3.07-161.87l5-.17a6.08,6.08,0,0,0,6-5.71,5.46,5.46,0,0,0-5.95-5.3L224,260c.46,0,9.8-.82,9.35-32.58L265.93,226c-1.22,32.06,8.29,32.18,8.75,32.17l-8.61.31c-3.36.13-6.12,2.71-6.16,5.77s2.64,5.44,6,5.33l5.09-.18c-18.27,7.53-6.38,163.28-6.38,163.28h-5.79c-3.4,0-6.19,2.47-6.23,5.5h0c0,3,2.68,5.47,6.08,5.47h35.66c3.46,0,6.32-2.47,6.39-5.53h0c.06-3.06-2.7-5.54-6.17-5.53l-5.87,0s16.57-157.4-1.75-163.76l5.14-.18c3.4-.11,6.21-2.7,6.28-5.79s-2.66-5.49-6.07-5.37l-8.68.32c.47,0,10.08-.84,9.94-33L327,223.29c-1.58,32.52,8.19,32.64,8.67,32.62l-8.85.33c-3.46.12-6.32,2.74-6.39,5.85s2.65,5.52,6.1,5.4l5.24-.18c-18.86,7.64-8,165.2-8,165.2h-5.95c-3.5,0-6.39,2.51-6.46,5.57h0c-.07,3.07,2.7,5.55,6.19,5.55h36.63c3.56,0,6.53-2.51,6.62-5.61h0c.1-3.1-2.71-5.61-6.28-5.6h-6s18.4-159.24-.36-165.69l5.28-.18c3.5-.12,6.42-2.75,6.51-5.88s-2.67-5.57-6.17-5.44l-8.93.33c.48,0,10.37-.87,10.57-33.54l34.43-1.52c-2,33,8.08,33.11,8.57,33.09l-9.11.34c-3.55.13-6.52,2.79-6.63,5.94s2.68,5.59,6.22,5.47l5.39-.18c-19.47,7.76-9.68,167.17-9.68,167.17l-6.11,0c-3.6,0-6.59,2.54-6.7,5.65h0c-.1,3.11,2.72,5.62,6.31,5.62h37.65c3.65,0,6.73-2.54,6.87-5.69h0c.13-3.14-2.74-5.69-6.4-5.68l-6.2,0s20.34-161.15,1.11-167.68l5.44-.19c3.6-.12,6.63-2.79,6.76-6s-2.69-5.65-6.29-5.52l-9.19.34c.5,0,10.67-.88,11.22-34l35.44-1.56c-2.38,33.48,7.95,33.59,8.46,33.58l-9.37.34c-3.66.14-6.74,2.84-6.89,6s2.69,5.68,6.34,5.56l5.54-.19c-20.1,7.88-11.46,169.2-11.46,169.2l-6.28,0c-3.7,0-6.81,2.58-6.95,5.73h0c-.14,3.15,2.73,5.7,6.42,5.7h38.71c3.76,0,7-2.58,7.13-5.77h0c.17-3.19-2.75-5.77-6.52-5.76l-6.37,0S495.69,269,476,262.4l5.59-.19c3.7-.13,6.85-2.84,7-6.06s-2.7-5.74-6.42-5.6l-9.44.34c.5,0,11-.89,11.9-34.55l36.48-1.61c-2.81,34,7.82,34.1,8.34,34.09l-9.65.35c-3.76.14-7,2.88-7.15,6.12s2.71,5.76,6.47,5.64l5.7-.2c-20.77,8-13.34,171.3-13.34,171.3l-6.47,0c-3.8,0-7,2.61-7.21,5.81h0c-.17,3.19,2.75,5.78,6.55,5.78h39.82c3.87,0,7.18-2.62,7.39-5.85h0c.21-3.23-2.76-5.85-6.64-5.84h-6.56s24.53-165.13,4.32-171.84l5.75-.19c3.82-.13,7.08-2.89,7.29-6.16s-2.72-5.82-6.54-5.68l-9.73.36c.53,0,11.32-.92,12.64-35.08l45.48-2a4.82,4.82,0,0,0,4.66-4.15l.67-9.28A3.55,3.55,0,0,0,599.59,194.19Z" transform="translate(-83.71 -106.96)"/><path class="cls-3" d="M517.5,336.73s-32.21,105.35-83.88,105.35H578.38c51.67,0,83.89-105.35,83.89-105.35C610.06,341.34,562.05,341.05,517.5,336.73Z" transform="translate(-83.71 -106.96)"/><path class="cls-4" d="M637.27,349.83l-86.13-.48-24.32-.13c-1.48,0-1.49,2.49,0,2.5l86.13.47,24.32.14C638.75,352.34,638.76,349.83,637.27,349.83Z" transform="translate(-83.71 -106.96)"/><path class="cls-4" d="M618.09,361H523.33c-1.48,0-1.48,2.5,0,2.5h94.76C619.57,363.47,619.57,361,618.09,361Z" transform="translate(-83.71 -106.96)"/><path class="cls-4" d="M605,372.81l-65.73-.16-18.86,0c-1.48,0-1.48,2.5,0,2.5l65.73.16,18.86.05C606.49,375.32,606.49,372.82,605,372.81Z" transform="translate(-83.71 -106.96)"/><path class="cls-4" d="M583.5,385.36l-67.73-.17c-1.48,0-1.48,2.5,0,2.51l67.73.17C585,387.87,585,385.37,583.5,385.36Z" transform="translate(-83.71 -106.96)"/><path class="cls-4" d="M611.11,396.94l-78.22-.56-22.06-.15c-1.48,0-1.48,2.49,0,2.5l78.22.55,22.06.16C612.59,399.45,612.6,397,611.11,396.94Z" transform="translate(-83.71 -106.96)"/><path class="cls-4" d="M580.59,407.76l-58.91-.71-16.95-.21c-1.48,0-1.49,2.49,0,2.5l58.91.72,17,.21C582.07,410.29,582.07,407.78,580.59,407.76Z" transform="translate(-83.71 -106.96)"/><path class="cls-4" d="M592.22,417.89l-72.93-.73-20.67-.2c-1.48,0-1.48,2.49,0,2.5l72.93.73,20.67.2C593.7,420.41,593.7,417.9,592.22,417.89Z" transform="translate(-83.71 -106.96)"/><path class="cls-5" d="M426.25,271.94H281.48c60,0,100.47,170.14,152.14,170.14H578.38C526.71,442.08,486.28,271.94,426.25,271.94Z" transform="translate(-83.71 -106.96)"/><path class="cls-3" d="M299.63,442.08s66.59-170.14,126.62-170.14H281.48c-60,0-126.61,170.14-126.61,170.14A869.21,869.21,0,0,1,299.63,442.08Z" transform="translate(-83.71 -106.96)"/><path class="cls-4" d="M369.13,289H262.74c-1.48,0-1.48,2.51,0,2.51H369.13C370.61,291.53,370.61,289,369.13,289Z" transform="translate(-83.71 -106.96)"/><path class="cls-4" d="M337.74,299H249.23c-1.48,0-1.49,2.51,0,2.51h88.51C339.22,301.49,339.22,299,337.74,299Z" transform="translate(-83.71 -106.96)"/><path class="cls-4" d="M323.78,310.84H239.2c-1.48,0-1.48,2.51,0,2.51h84.58C325.27,313.35,325.27,310.84,323.78,310.84Z" transform="translate(-83.71 -106.96)"/><path class="cls-4" d="M323.35,347.89l-83.27,1.17-23.55.33c-1.48,0-1.48,2.52,0,2.5l83.27-1.17,23.55-.33C324.83,350.37,324.83,347.86,323.35,347.89Z" transform="translate(-83.71 -106.96)"/><path class="cls-4" d="M292.83,361.88l-65.55.21-18.6.06c-1.48,0-1.48,2.5,0,2.5l65.54-.21,18.61-.06C294.31,364.38,294.31,361.87,292.83,361.88Z" transform="translate(-83.71 -106.96)"/><path class="cls-4" d="M292,375.81l-69.62.31-19.76.09c-1.48,0-1.49,2.51,0,2.51l69.61-.31,19.77-.09C293.44,378.31,293.44,375.81,292,375.81Z" transform="translate(-83.71 -106.96)"/><path class="cls-4" d="M266.67,388.32l-68-1c-1.48,0-1.48,2.48,0,2.5l68,1C268.15,390.84,268.15,388.34,266.67,388.32Z" transform="translate(-83.71 -106.96)"/><path class="cls-4" d="M286.73,401.71l-71.07.22L195.6,402c-1.48,0-1.48,2.51,0,2.5l71.07-.23,20.06-.06C288.21,404.2,288.21,401.7,286.73,401.71Z" transform="translate(-83.71 -106.96)"/><path class="cls-4" d="M315.5,322.32l-63.91-.74-18.06-.21c-1.48,0-1.48,2.49,0,2.51l63.91.74,18.06.2C317,324.84,317,322.34,315.5,322.32Z" transform="translate(-83.71 -106.96)"/><ellipse class="cls-6" cx="191.33" cy="314.39" rx="18.03" ry="9.17"/><path class="cls-7" d="M434.3,183.19l1.06,10.8c-2.39.19-4.79.39-7.19.57q-20.46,1.63-40.95,3c-16.05,1.17-32.12,2.12-48.19,3.15l-11.92.78a8.86,8.86,0,0,0-7.18,4.86,7.43,7.43,0,0,0-.7,2.15c0,.1,0,.17-.06.3l-.05.4-.1.82-.21,1.6-.86,6.47L316.21,231l-1.79,12.91-.91,6.45-.46,3.22a12.47,12.47,0,0,1-.35,1.84,9.39,9.39,0,0,1-.71,1.83,9.33,9.33,0,0,1-5.41,4.54,9.37,9.37,0,0,1-6.69-.42,9.25,9.25,0,0,1-4.79-5l-.27-.86c-.07-.3-.13-.59-.19-.89l-.1-.89,0-.82-.17-3.27.87-.08.48,3.25.11.81.15.73.22.71.28.67a7.19,7.19,0,0,0,9.27,3.44,6.73,6.73,0,0,0,3.57-3.49,5.23,5.23,0,0,0,.38-1.2,10.79,10.79,0,0,0,.15-1.37l.24-3.26.47-6.53,1-13,1-13,.52-6.51.14-1.63.07-.81,0-.42.06-.5a14.37,14.37,0,0,1,1.06-4,15,15,0,0,1,11.77-9.09L338.27,193c16-1.72,32-3.53,48-5.1S418.28,184.63,434.3,183.19Z" transform="translate(-83.71 -106.96)"/><path class="cls-8" d="M437.26,188.38l-2.3,1.56-6.79,4.62q-20.46,1.63-40.95,3c-16.05,1.17-32.12,2.12-48.19,3.15l-11.92.78a8.86,8.86,0,0,0-7.18,4.86,7.43,7.43,0,0,0-.7,2.15c0,.1,0,.17-.06.3l-.05.4-.1.82-.21,1.6-.86,6.47L316.21,231l-1.79,12.91-.91,6.45-.46,3.22a12.47,12.47,0,0,1-.35,1.84,9.39,9.39,0,0,1-.71,1.83,9.07,9.07,0,0,1-1.79,2.38c3.11-2.69,4.92-31.49,7.36-52a9.35,9.35,0,0,1,8.14-8.28l109.13-10.74Z" transform="translate(-83.71 -106.96)"/><path class="cls-7" d="M433.51,183.26l1.07,10.79q3.59-.31,7.17-.66,20.44-1.87,40.86-4c16-1.58,32-3.38,48-5.1L542.48,183a9.14,9.14,0,0,1,8,3.55,7.74,7.74,0,0,1,1.11,2c0,.09.06.15.11.27l.13.39.26.79.52,1.54,2.1,6.22,4.22,12.4,4.29,12.39,2.15,6.18,1.08,3.1a11,11,0,0,0,.7,1.75,9.39,9.39,0,0,0,13.75,3.66,8.88,8.88,0,0,0,3.73-5.75l.1-.89c0-.3,0-.6,0-.91l-.08-.89-.12-.81-.47-3.25-.87.08.16,3.27,0,.82v.75l-.08.73-.14.7a7,7,0,0,1-3.33,4.26,7.27,7.27,0,0,1-5.12.71,7,7,0,0,1-4.19-2.83,5.5,5.5,0,0,1-.6-1.12,11,11,0,0,1-.42-1.32l-.87-3.16-1.73-6.34-3.48-12.66L559.91,196l-1.79-6.31-.45-1.58-.22-.79-.12-.4-.15-.48a15,15,0,0,0-1.83-3.78A15.47,15.47,0,0,0,542,175.76l-12.17.75c-16.07,1-32.14,2-48.18,3.16S449.55,182,433.51,183.26Z" transform="translate(-83.71 -106.96)"/><path class="cls-8" d="M431.62,188.87l2.56,1.14,7.57,3.38q20.44-1.87,40.86-4c16-1.58,32-3.38,48-5.1L542.48,183a9.14,9.14,0,0,1,8,3.55,7.74,7.74,0,0,1,1.11,2c0,.09.06.15.11.27l.13.39.26.79.52,1.54,2.1,6.22,4.22,12.4,4.29,12.39,2.15,6.18,1.08,3.1a11,11,0,0,0,.7,1.75,9.39,9.39,0,0,0,3.27,3.71c-3.58-2.12-11-30.13-17.36-49.9a9.64,9.64,0,0,0-9.62-6.75l-109.4,8Z" transform="translate(-83.71 -106.96)"/><ellipse class="cls-7" cx="435.9" cy="186.64" rx="19.7" ry="16.38" transform="translate(3.46 400.97) rotate(-65.83)"/><path class="cls-8" d="M451.62,191.39c-3.55,10.26-13.46,16.46-22.15,13.83-5.37-1.63-9-6.24-10.16-12a14,14,0,0,0,7.78,6c8.68,2.62,18.59-3.56,22.14-13.83A21.6,21.6,0,0,0,450.1,174C453.06,178.6,453.82,185,451.62,191.39Z" transform="translate(-83.71 -106.96)"/><path class="cls-9" d="M433.81,178.35c-3.27,2-6.53,2.17-7.28.28s1.29-5.07,4.56-7.11,6.54-2.18,7.29-.29S437.08,176.31,433.81,178.35Z" transform="translate(-83.71 -106.96)"/><path class="cls-7" d="M446,408.72H424.2c4.45-59.85,4.88-129.09,4.28-204.43h12.27C439.67,278,440.85,347.21,446,408.72Z" transform="translate(-83.71 -106.96)"/><path class="cls-9" d="M434.45,204.29l-1.24,204.43H428.4c4.59-49.89,3.06-172.29,2.57-204.43Z" transform="translate(-83.71 -106.96)"/><path class="cls-10" d="M442.63,360.8H427.56a3.34,3.34,0,1,0,0,6.67h15.07A3.34,3.34,0,1,0,442.63,360.8Z" transform="translate(-83.71 -106.96)"/><path class="cls-10" d="M440.42,320.65H428.48c-3.63,0-3.64,6.68,0,6.68h11.94C444.05,327.33,444.06,320.65,440.42,320.65Z" transform="translate(-83.71 -106.96)"/><path class="cls-10" d="M440.42,281.87H428.48c-3.63,0-3.64,6.67,0,6.67h11.94C444.05,288.54,444.06,281.87,440.42,281.87Z" transform="translate(-83.71 -106.96)"/><path class="cls-10" d="M439.8,243.08H429.1c-3.26,0-3.26,6.67,0,6.67h10.7C443.06,249.75,443.06,243.08,439.8,243.08Z" transform="translate(-83.71 -106.96)"/><path class="cls-10" d="M440.42,204.29H428.48c-3.63,0-3.64,6.68,0,6.68h11.94C444.05,211,444.06,204.29,440.42,204.29Z" transform="translate(-83.71 -106.96)"/><path class="cls-10" d="M476.34,417.17H396.17a9.28,9.28,0,0,1,.48-1c1.91-3.49,10.17-15,36.56-15.84h.12c.95,0,1.92,0,2.92,0,28.8,0,37.63,12.27,39.61,15.89A9.28,9.28,0,0,1,476.34,417.17Z" transform="translate(-83.71 -106.96)"/><path class="cls-7" d="M497,430.12H375.5A12.16,12.16,0,0,1,377,428c.18-.22.39-.48.63-.73,2.67-2.91,8.27-7.51,19-11.1a92.46,92.46,0,0,1,11.79-3,150.15,150.15,0,0,1,27.81-2.34,155.6,155.6,0,0,1,24.68,1.79H461a94.26,94.26,0,0,1,14.88,3.57c10.73,3.59,16.33,8.19,19,11.1A14,14,0,0,1,497,430.12Z" transform="translate(-83.71 -106.96)"/><path class="cls-10" d="M552,443.64H320.54s10.32-11,57.1-16.37c3.42-.4,7-.77,10.86-1.1l.65-.06.38,0,.36,0c13-1.07,28.33-1.73,46.36-1.73,16.89,0,31.4.58,43.84,1.54,5.29.41,10.2.88,14.77,1.41C541.64,432.68,552,443.64,552,443.64Z" transform="translate(-83.71 -106.96)"/><path class="cls-8" d="M552,443.64h-30c-6.15-6.09-16.81-10.57-25.84-13.52a149.6,149.6,0,0,0-16-4.26,25.21,25.21,0,0,0-8.83-8.69A42.66,42.66,0,0,0,461,412.6h-.05c-6.45-9.06-24.68-12.31-24.68-12.31,28.8,0,37.63,12.27,39.61,15.89,10.73,3.59,16.33,8.19,19,11.1C541.64,432.68,552,443.64,552,443.64Z" transform="translate(-83.71 -106.96)"/><path class="cls-9" d="M433.21,400.33c-1.55.08-18.25,1.29-24.77,12.81h0a45.25,45.25,0,0,0-9.49,4c-3.62,2.08-7.31,5-9.05,8.88l-.36,0-.38,0-.65.06A115.44,115.44,0,0,0,377,428c-10.3,2.19-24.2,6.68-31.67,15.64h-24.8s10.32-11,57.1-16.37c2.67-2.91,8.27-7.51,19-11.1C398.56,412.68,406.82,401.15,433.21,400.33Z" transform="translate(-83.71 -106.96)"/><polyline class="cls-11" points="155.18 221.42 221.2 150.28 287.36 221.42"/><line class="cls-11" x1="221.2" y1="150.28" x2="247.16" y2="221.42"/><path class="cls-6" d="M386.27,325.68s-9.4,44.92-79.49,44.92l-2.4,0c-67.91-1-77.08-44.9-77.08-44.9,3-.4,6-.78,9-1.12q13.67-1.62,27.31-2.6A590.15,590.15,0,0,1,366,323.27Q376.14,324.29,386.27,325.68Z" transform="translate(-83.71 -106.96)"/><path class="cls-12" d="M386.27,325.68s-9.4,44.92-79.49,44.92c0,0,43.56-8.66,59.23-47.33Q376.14,324.29,386.27,325.68Z" transform="translate(-83.71 -106.96)"/><path class="cls-13" d="M306.78,370.6l-2.4,0c-41.26-.92-59.76-25.54-68-46q13.67-1.62,27.31-2.6C273.94,361,306.78,370.6,306.78,370.6Z" transform="translate(-83.71 -106.96)"/><polyline class="cls-11" points="430.13 199.57 496.15 128.42 562.31 199.57"/><line class="cls-11" x1="496.15" y1="128.42" x2="522.11" y2="199.57"/><path class="cls-6" d="M661.22,303.82s-9.4,44.93-79.49,44.93c-.81,0-1.61,0-2.4,0-67.91-1-77.08-44.9-77.08-44.9,3-.4,6-.78,9.05-1.12q13.66-1.62,27.31-2.6A590.15,590.15,0,0,1,641,301.41Q651.09,302.45,661.22,303.82Z" transform="translate(-83.71 -106.96)"/><path class="cls-12" d="M661.22,303.82s-9.4,44.93-79.49,44.93c0,0,43.56-8.67,59.23-47.34Q651.09,302.45,661.22,303.82Z" transform="translate(-83.71 -106.96)"/><path class="cls-13" d="M581.73,348.75c-.81,0-1.61,0-2.4,0-41.26-.92-59.76-25.53-68-46q13.66-1.62,27.31-2.6C548.89,339.16,581.73,348.75,581.73,348.75Z" transform="translate(-83.71 -106.96)"/><path class="cls-10" d="M605,410.79H513.91c.46-1.17.45-4.15.8-5.31l83.84,1.8,2.59-21.46h-86c-.35-1.17.55-5.38.09-6.55L605,380.6C607.9,389.24,607.44,400.57,605,410.79Z" transform="translate(-83.71 -106.96)"/><path class="cls-14" d="M678.2,413.7,605,410.79a74.75,74.75,0,0,0-.82-30.2L678.2,384C682.76,392.75,682.3,403.52,678.2,413.7Z" transform="translate(-83.71 -106.96)"/><path class="cls-3" d="M598.55,407.28,521,405.61c3.32-6.68,3.55-12.13,0-19.79h80.11Z" transform="translate(-83.71 -106.96)"/><ellipse class="cls-10" cx="559.5" cy="289.59" rx="25.74" ry="6.47"/><path class="cls-4" d="M585.62,391.63l-53.7-1.25a.9.9,0,0,0,0,1.8l53.7,1.25A.9.9,0,0,0,585.62,391.63Z" transform="translate(-83.71 -106.96)"/><path class="cls-4" d="M586.76,398.41l-43.69-1.1a.9.9,0,0,0,0,1.8l43.69,1.1A.9.9,0,0,0,586.76,398.41Z" transform="translate(-83.71 -106.96)"/><path class="cls-15" d="M598.55,443.61H489c.55-1.41,1.47-4,1.89-5.42l103,1.19V413.57l-102.82,1.87c-.42-1.4-1.56-4.68-2.11-6.09H598.55C602.08,419.74,601.54,431.31,598.55,443.61Z" transform="translate(-83.71 -106.96)"/><path class="cls-10" d="M686.66,441.75l-88.11,1.85c2.26-12.22,2.64-23.77,0-34.25l88.11,3.35C692.14,423.2,691.59,429.51,686.66,441.75Z" transform="translate(-83.71 -106.96)"/><path class="cls-3" d="M594,439.38l-95.38-1.1c4-8,3.28-13.75-1-23L594,413.57Z" transform="translate(-83.71 -106.96)"/><path class="cls-4" d="M573.78,419.83l-48.21.66-13.68.18a.9.9,0,0,0,0,1.8l48.21-.65,13.68-.19A.9.9,0,0,0,573.78,419.83Z" transform="translate(-83.71 -106.96)"/><path class="cls-4" d="M585.16,426.84l-54.58.82-15.5.24a.9.9,0,0,0,0,1.8l54.58-.82,15.5-.24A.9.9,0,0,0,585.16,426.84Z" transform="translate(-83.71 -106.96)"/><path class="cls-6" d="M577.4,431.13h9.07a40.91,40.91,0,0,1-27.81,12.37,10,10,0,0,0,4.8-3.08,47,47,0,0,1-14.61,1.84S569.53,439,577.4,431.13Z" transform="translate(-83.71 -106.96)"/><path class="cls-15" d="M408,435.61a7.35,7.35,0,0,1-1.54,2.5c-18.8,20.28-157-56.79-157-56.79s-14.37,11.95-22.86-7.4l-18.32-4.29s-2.66,6.91-9.33,1.23l10.94-29.57s6.65,2.17,5.81,8.29l15.75,11.24s15.72-10.69,21.77,8.05C253.23,368.87,418.45,407.32,408,435.61Z" transform="translate(-83.71 -106.96)"/><path class="cls-8" d="M406.44,438.11c-18.8,20.28-157-56.79-157-56.79s-14.37,11.95-22.86-7.4l-18.32-4.29s-2.66,6.91-9.33,1.23L206.7,350c.24-.05.49-.09.73-.12q.24,6.24.5,12.47A76.88,76.88,0,0,0,229,367.38a15.26,15.26,0,0,0,22.53,7.06C291.41,396,332.78,417.39,375.6,432.3,385.53,435.75,396.12,438.86,406.44,438.11Z" transform="translate(-83.71 -106.96)"/><path class="cls-15" d="M186.22,415.54c-3.3.56-9.28-.2-16.47-1.8h0a231.67,231.67,0,0,1-28.86-8.69c-15.12-5.61-34.41-16.07-39.56-19.28a5.49,5.49,0,0,1-2.15-2.43c-1-2.42-2.15-7,2.76-9.24a5.77,5.77,0,0,1,4.33-.05l65.51,24.24h0l15.92,5.89c2.23.82,3.75,2.73,3.64,4.65C191.2,411.83,190.7,414.78,186.22,415.54Z" transform="translate(-83.71 -106.96)"/><path class="cls-7" d="M185.7,401.2a2.86,2.86,0,0,1-2.2,1.43,7.24,7.24,0,0,1-1.05.14c-2.17.13-5.93-.47-10.56-1.56h0a232.37,232.37,0,0,1-25.64-7.95A298.76,298.76,0,0,1,114,378.46a4.87,4.87,0,0,1-1.83-1.69,6.74,6.74,0,0,1-.36-.66,5.84,5.84,0,0,1-.47-1.31c-.34-1.41,0-2.93,2.19-3.71l.24-.09a5.48,5.48,0,0,1,3.4.24l65.76,24.33a6.44,6.44,0,0,1,.8.35,3.86,3.86,0,0,1,2.34,2.85A5,5,0,0,1,185.7,401.2Z" transform="translate(-83.71 -106.96)"/><path class="cls-10" d="M186.36,401.23l-.66,0a79.92,79.92,0,0,1-13.91-2.9h0c-7.9-2.18-17.51-5.32-26.37-8.61-7.34-2.73-15.86-6.41-23-9.65-4.45-2-8.36-3.88-11.08-5.23-1.18-.58-2.14-1.07-2.84-1.43a6.51,6.51,0,0,1-2.16-1.74c-1.17-1.61-2.66-4.55,1.39-5.39a7.2,7.2,0,0,1,3.8.46l74.86,27.7c2,.75,3.58,2.1,3.72,3.27C190.31,399.5,190.2,401.26,186.36,401.23Z" transform="translate(-83.71 -106.96)"/><path class="cls-7" d="M207.2,359.05c-5.55,15.43-16.64,29.4-21.51,35.08L185,395a4.06,4.06,0,0,1-1.23,1,4.39,4.39,0,0,1-2.93.38q-4.31-1-8.6-2.07a280.51,280.51,0,0,1-57.82-22.57,4.51,4.51,0,0,1-.85-.57,4.28,4.28,0,0,1-1.49-3c0-.38,0-.8-.07-1.26a106.19,106.19,0,0,1,6.48-40.65,82.25,82.25,0,0,1,24.26-33.92c2-1.67,3.3-2.52,3.3-2.52l57.41,21.83,8.47,3.21s.13,1.28.24,3.49C212.55,325.69,212.77,343.55,207.2,359.05Z" transform="translate(-83.71 -106.96)"/><path class="cls-10" d="M218.85,319.27a35.91,35.91,0,0,1-6.71-1c-3.08-.66-6.77-1.62-10.8-2.79-7.29-2.11-15.66-4.9-23.46-7.78-12.59-4.66-28.62-12.16-35.16-15.44l-1.72-.87a6.39,6.39,0,0,1-2.16-1.74c-1.17-1.61-2.67-4.55,1.39-5.39a7.2,7.2,0,0,1,3.8.46l74.86,27.69c2,.76,3.59,2.11,3.71,3.27C222.8,317.55,222.69,319.31,218.85,319.27Z" transform="translate(-83.71 -106.96)"/><path class="cls-7" d="M217.14,311.8a6.6,6.6,0,0,1-1.08.14c-2.64.16-7.65-.76-13.67-2.33h0c-6.85-1.78-15-4.38-22.53-7.17a298.38,298.38,0,0,1-32.23-14.81,4.87,4.87,0,0,1-1.83-1.69c-.12-.21-.24-.43-.36-.68-.57-1.16-1-2.69-.05-3.84a3.85,3.85,0,0,1,2-1.25,5.55,5.55,0,0,1,3.4.23l65.76,24.33c1.8.67,3.1,2,3.14,3.21a10.52,10.52,0,0,1,0,1.13A2.77,2.77,0,0,1,217.14,311.8Z" transform="translate(-83.71 -106.96)"/><path class="cls-15" d="M228.87,309.17a30.58,30.58,0,0,1-9.21-.1,150.49,150.49,0,0,1-22.09-4.91h0c-2-.59-4.11-1.23-6.17-1.88-3.44-1.1-6.86-2.29-10.18-3.51-2.47-.92-5-2-7.66-3.09a303.85,303.85,0,0,1-28.16-14.25c-2.39-1.37-4.28-2.51-5.44-3.27a5.65,5.65,0,0,1-2.21-2.69c-1-2.72-2-7.87,3.24-10.61a5.77,5.77,0,0,1,4.6-.19l85.27,31.55a5.31,5.31,0,0,1,3.69,5.16C234.27,304.79,233.64,308.16,228.87,309.17Z" transform="translate(-83.71 -106.96)"/><path class="cls-8" d="M228.87,309.17a30.58,30.58,0,0,1-9.21-.1,2.77,2.77,0,0,1-2.52,2.73l1.75.64c2,.76,3.59,2.11,3.71,3.27.2,1.84.09,3.6-3.75,3.56a35.91,35.91,0,0,1-6.71-1c.41,7.39.63,25.25-4.94,40.75s-16.64,29.4-21.51,35.08l.71.27c2,.75,3.58,2.1,3.72,3.27.19,1.83.08,3.59-3.76,3.56l-.66,0a2.86,2.86,0,0,1-2.2,1.43l4.21,1.56c2.23.82,3.75,2.73,3.64,4.65-.15,3-.65,5.94-5.13,6.7-3.3.56-9.28-.2-16.47-1.8,11.06-5.23,2.45-12.27,2.14-12.53h0l-.11-2.92c2.39-1.15.44-4.06.44-4.06.62-.66,1.22-1.31,1.81-2s1.11-1.23,1.64-1.85c31-35.74,25.68-74.91,25.68-74.91,2.41-.9,2.51-2.58,2.09-3.91a7.47,7.47,0,0,0-1-2h0c1.58-1.32-.17-2.89-2-4a24.55,24.55,0,0,0-2.82-1.44c6.34.43,11-.08,14.46-1.1,10.14-3,9.65-10.24,9.65-10.24l9.16,3.39a5.31,5.31,0,0,1,3.69,5.16C234.27,304.79,233.64,308.16,228.87,309.17Z" transform="translate(-83.71 -106.96)"/><path class="cls-13" d="M141.56,319.75c-6.51,9-14.31,14.58-17.41,12.37s-.33-11.31,6.19-20.35,14.3-14.59,17.4-12.38S148.08,310.71,141.56,319.75Z" transform="translate(-83.71 -106.96)"/><path class="cls-7" d="M206.73,428.66H100l.23-1.42,2.59-15.81q8.3.58,16.51,1,6.33.35,12.61.55l5,.16,4.58.11q22,.45,43.46-.58,9.63-.45,19.11-1.24l2.35,15.82Z" transform="translate(-83.71 -106.96)"/><g class="cls-16"><path class="cls-9" d="M132,413l-1.5,15.68H118l1.39-16.23Q125.7,412.78,132,413Z" transform="translate(-83.71 -106.96)"/><path class="cls-9" d="M141.6,413.25l-1.47,15.41h-4.44L137,413.14Z" transform="translate(-83.71 -106.96)"/></g><path class="cls-10" d="M222.87,443.64H83.71l2.75-17.23q6.9.46,13.81.83c1.87.1,3.75.2,5.62.28,4.23.21,8.44.38,12.67.53,1.66.06,3.33.12,5,.15s3.09.11,4.64.14q12.72.33,25.44.32,16.8,0,33.6-.56,9.65-.33,19.29-.85c4.69-.24,9.36-.53,14-.84Z" transform="translate(-83.71 -106.96)"/><g class="cls-16"><path class="cls-9" d="M118.56,428.05l-1.48,15.59H104.51l1.38-16.12C110.12,427.73,114.33,427.9,118.56,428.05Z" transform="translate(-83.71 -106.96)"/><path class="cls-9" d="M128.19,428.34l-1.46,15.3h-4.5l1.32-15.44C125.1,428.27,126.64,428.31,128.19,428.34Z" transform="translate(-83.71 -106.96)"/></g><path class="cls-8" d="M222.87,443.64h-14.3l-2.69-10.52L189,428.66l-1.74-.46v-.1l-2.17-15.43q9.63-.45,19.11-1.24l2.35,15.82c4.69-.24,9.36-.53,14-.84Z" transform="translate(-83.71 -106.96)"/><path class="cls-17" d="M356,140.71a22.61,22.61,0,0,0,8.36,24,22.36,22.36,0,0,0,25.4-.07,22.13,22.13,0,0,0,7.84-24.12c-2.91-8.87-12-14.53-21-15.58S358.37,132.42,356,140.71Z" transform="translate(-83.71 -106.96)"/><path class="cls-17" d="M368.43,140.71c-1,8.68.4,18.78,3.38,24s7.31,5.23,10.26-.07,4.31-15.53,3.17-24.12c-1.17-8.87-4.84-14.53-8.49-15.58S369.4,132.42,368.43,140.71Z" transform="translate(-83.71 -106.96)"/><line class="cls-17" x1="271.47" y1="39.8" x2="314.86" y2="39.8"/><path class="cls-17" d="M359.64,133.62a41.76,41.76,0,0,0,35.44,1.92" transform="translate(-83.71 -106.96)"/><path class="cls-17" d="M358.45,158.28s12.91-6.95,37.89-1.68" transform="translate(-83.71 -106.96)"/><path class="cls-17" d="M513.17,124.92q21-8.53,34.13-17.06c7.73,6.83,19.11,12.32,32.56,17.06Z" transform="translate(-83.71 -106.96)"/><polygon class="cls-17" points="438.06 17.95 436.77 47.55 441.93 47.55 441.93 17.95 438.06 17.95"/><polygon class="cls-17" points="449.3 17.95 448 47.55 453.16 47.55 453.16 17.95 449.3 17.95"/><polygon class="cls-17" points="460.53 17.95 459.24 47.55 464.4 47.55 464.4 17.95 460.53 17.95"/><polygon class="cls-17" points="471.77 17.95 470.48 47.55 475.64 47.55 475.64 17.95 471.77 17.95"/><polygon class="cls-17" points="482.45 17.95 481.16 47.55 486.32 47.55 486.32 17.95 482.45 17.95"/><polygon class="cls-17" points="431.43 47.55 493.32 47.55 493.32 52.42 429.46 52.42 431.43 47.55"/><path class="cls-17" d="M124.77,245.21c22.21-8,24.45-29,25-33.08s5.69-12.31,5.69-12.31c-21.48-3-30.13-16.63-30.13-16.63s-8.92,13.5-30.45,16.05c0,0,5,8.31,5.46,12.41S102.72,236.81,124.77,245.21Z" transform="translate(-83.71 -106.96)"/><path class="cls-17" d="M124.82,239.71c17.2-6.38,18.94-23.15,19.39-26.42s4.41-9.83,4.41-9.83C132,201.1,125.3,190.19,125.3,190.19S118.39,201,101.73,203c0,0,3.82,6.63,4.22,9.91S107.75,233,124.82,239.71Z" transform="translate(-83.71 -106.96)"/><path class="cls-17" d="M116.68,216.37a119.69,119.69,0,0,0,7.8-9.6" transform="translate(-83.71 -106.96)"/><path class="cls-17" d="M120.39,228.11q6.35-10,13.2-19.6" transform="translate(-83.71 -106.96)"/><path class="cls-17" d="M632.42,225.51l-4.27-5s31.53-40,41.54-31.6S632.42,225.51,632.42,225.51Z" transform="translate(-83.71 -106.96)"/><polyline class="cls-17" points="548.72 118.55 538.51 127.23 534.65 122.68 544.45 113.53"/><path class="cls-17" d="M622.22,234.19s2.49,7.77-15.53,8.87c0,0,2.09-14.34,11.67-13.42" transform="translate(-83.71 -106.96)"/><path class="cls-17" d="M660.44,205.8s-.33-7.17-8.71-10.25l-2.6-3.05s-12.94,11.82-17,18.34" transform="translate(-83.71 -106.96)"/><path class="cls-17" d="M205.79,120.49a102.52,102.52,0,0,0,30.71,1.87l-.38,6.28-30.71-1.87Z" transform="translate(-83.71 -106.96)"/><path class="cls-17" d="M232.45,128.41s5.48,16.42-1.63,26.71" transform="translate(-83.71 -106.96)"/><path class="cls-17" d="M203.78,153.47l30.71,1.87-.37,6.23q-13.23-3-30.71-1.87Z" transform="translate(-83.71 -106.96)"/><path class="cls-17" d="M234.44,140.47s56.17-7.08,56.69-.13-55.95,4.54-55.95,4.54" transform="translate(-83.71 -106.96)"/><path class="cls-17" d="M209.31,127s-9.56,13.94-1.63,26.71" transform="translate(-83.71 -106.96)"/><polygon class="cls-6" points="155.51 72.46 157.51 79.61 164.66 81.61 157.51 83.61 155.51 90.76 153.5 83.61 146.35 81.61 153.5 79.61 155.51 72.46"/><polygon class="cls-6" points="305.71 133.64 307.71 140.79 314.87 142.79 307.71 144.79 305.71 151.94 303.71 144.79 296.56 142.79 303.71 140.79 305.71 133.64"/><polygon class="cls-6" points="169.56 90.76 170.78 95.47 175.13 96.78 170.78 98.1 169.56 102.81 168.34 98.1 163.98 96.78 168.34 95.47 169.56 90.76"/><polygon class="cls-6" points="548.04 142.56 549.26 147.27 553.62 148.59 549.26 149.91 548.04 154.62 546.83 149.91 542.47 148.59 546.83 147.27 548.04 142.56"/><polygon class="cls-6" points="405.32 48.58 406.54 53.29 410.89 54.61 406.54 55.93 405.32 60.64 404.1 55.93 399.74 54.61 404.1 53.29 405.32 48.58"/><polygon class="cls-6" points="555.18 161.31 556.74 167.33 562.31 169.02 556.74 170.7 555.18 176.72 553.62 170.7 548.04 169.02 553.62 167.33 555.18 161.31"/><polygon class="cls-6" points="27.83 155.28 29.05 159.99 33.4 161.31 29.05 162.63 27.83 167.34 26.61 162.63 22.25 161.31 26.61 159.99 27.83 155.28"/></g></g></svg>